SORRY, NO ENGLISH THIS TIME. This serie is in English, but the menu isn't.

~~~~~~~~~~~~~~~~~~~~~~~~~~~~~~~~~~~~~~~~~~~~~~~~~~~~~~~~~
VERHAALLIJN:
¯¯¯¯¯¯¯¯¯¯¯¯
In de serie raakt de Amerikaanse astronaut John Crichton per abuis in een wormgat verzeild tijdens een experimentele ruimtevlucht. Eenmaal uit het wormgat blijkt hij zich in een compleet nieuw heelal te bevinden. Voordat hij zich hierover ook maar kan verbazen belandt hij midden in een ruimtegevecht, waarin hij per ongeluk een schip ramt, dat vervolgens explodeert. Hij wordt aan boord genomen van een reusachtig levend ruimteschip dat bemand is door een drietal buitenaardse wezens, gevangenen, zo blijkt, die net bezig zijn te ontsnappen uit handen van de Peacekeepers, een mensachtig ras van brute militairen.

~~~~~~~~~~~~~~~~~~~~~~~~~~~~~~~~~~~~~~~~~~~~~~~~~~~~~~~~~
- Titel: Farscape Seizoen 3 DVD 6 (RETAIL) RHoek 2Lions-Team
- Grootte: 3,17 GB
- Categorie : Beeld
- Formaat : DVD5 
- Bron : Retail
- Genre : Science Fiction
- Beeld : 4:3
- Audio : 5.1DD Engels
- Menu : Ja Custom (met dank aan kessy en machoclown)
- Ondertitels : Custom Nederlands (met dank aan DaClownz)
- Genre : Science-Fiction | Avontuur 

Met dank aan Pioen voor het verkrijgen van deze serie & Angelspots voor het spotten!

IMDb: http://www.imdb.com/title/tt0187636/ (8.7 uit 10 !!!)
Officiële website: http://www.farscape.com

~~~~~~~~~~~~~~~~~~~~~~~~~~~~~~~~~~~~~~~~~~~~~~~~~~~~~~~~~
VIDEO & AUDIO INFORMATIE
¯¯¯¯¯¯¯¯¯¯¯¯¯¯¯¯¯¯¯¯¯¯¯¯¯¯¯¯¯¯
Video
ID                               : 224 (0xE0)
Format                           : MPEG Video
Format version                   : Version 2
Format profile                   : Main@Main
Format settings, BVOP            : Yes
Format settings, Matrix          : Default
Format settings, GOP             : M=3, N=13
Duration                         : 38mn 30s
Bit rate mode                    : Constant
Bit rate                         : 3 196 Kbps
Nominal bit rate                 : 9 000 Kbps
Width                            : 720 pixels
Height                           : 576 pixels
Display aspect ratio             : 4:3
Frame rate                       : 25.000 fps
Standard                         : PAL
Color space                      : YUV
Chroma subsampling               : 4:2:0
Bit depth                        : 8 bits
Scan type                        : Interlaced
Scan order                       : Top Field First
Bits/(Pixel*Frame)               : 0.308
Stream size                      : 880 MiB (86%)

Audio
ID                               : 128 (0x80)
Format                           : AC-3
Format/Info                      : Audio Coding 3
Mode extension                   : CM (complete main)
Duration                         : 38mn 30s
Bit rate mode                    : Constant
Bit rate                         : 448 Kbps
Channel(s)                       : 6 channels
Channel positions                : Front: L C R, Side: L R, LFE
Sampling rate                    : 48.0 KHz
Bit depth                        : 16 bits
Stream size                      : 123 MiB (12%)

*****************************************
Brought to you by 2Lions Team
******************************************